<svg width="67" height="67" viewBox="0 0 67 67" fill="none" xmlns="http://www.w3.org/2000/svg">
<path fill-rule="evenodd" clip-rule="evenodd" d="M67 33.5C67 52.0015 52.0015 67 33.5 67C14.9985 67 0 52.0015 0 33.5C0 14.9985 14.9985 0 33.5 0C52.0015 0 67 14.9985 67 33.5ZM23 22C23 21.4477 23.4477 21 24 21H29.0909C29.6432 21 30.0909 21.4477 30.0909 22V46C30.0909 46.5523 29.6432 47 29.0909 47H24C23.4477 47 23 46.5523 23 46V22ZM38.1818 21C37.6295 21 37.1818 21.4477 37.1818 22V46C37.1818 46.5523 37.6295 47 38.1818 47H43.2727C43.825 47 44.2727 46.5523 44.2727 46V22C44.2727 21.4477 43.825 21 43.2727 21H38.1818Z" fill="#60C689"/>
</svg>
