<svg width="32" height="32" viewBox="0 0 32 32" fill="none" xmlns="http://www.w3.org/2000/svg">
<path d="M29.3995 0.092521L9.4002 5.99849C8.99423 6.12601 8.63951 6.37969 8.38761 6.72264C8.1357 7.0656 7.99974 7.47995 7.99949 7.90548V24.2446C7.34454 24.0856 6.67332 24.0034 5.99937 23.9995C2.68668 23.9995 -0.000976562 25.7909 -0.000976562 27.9998C-0.000976562 30.2086 2.68668 32 5.99937 32C9.31207 32 11.9997 30.2086 11.9997 27.9998V13.3939L28.0007 8.70615V20.2449C27.3458 20.0854 26.6745 20.003 26.0005 19.9993C22.6878 19.9993 20.0002 21.7907 20.0002 23.9995C20.0002 26.2084 22.6878 27.9998 26.0005 27.9998C29.3132 27.9998 32.0009 26.209 32.0009 23.9995V1.99826C32.0006 1.68426 31.9264 1.37475 31.7843 1.09477C31.6421 0.814782 31.4361 0.572194 31.1828 0.386634C30.9295 0.201074 30.6361 0.0777556 30.3262 0.02666C30.0164 -0.0244356 29.699 -0.00187327 29.3995 0.092521Z" fill="#60C689"/>
</svg>
