<svg width="191" height="191" viewBox="0 0 191 191" fill="none" xmlns="http://www.w3.org/2000/svg">
<rect width="191" height="191" fill="#60C689"/>
<path d="M96.5507 53.0739C96.0939 53.0739 95.6371 53.4278 95.363 53.8702L86.7747 69.883C86.592 70.3254 86.1352 70.6792 85.587 70.6792H72.7046C65.1214 70.6792 59 76.6067 59 83.9496V122.964C59 123.407 59.3655 123.761 59.8223 123.761H131.178C131.635 123.761 132 123.407 132 122.964V71.5639C132 71.0331 131.635 70.7677 131.178 70.7677H123.777C123.32 70.7677 122.864 70.4138 122.589 69.9715L114.001 53.9586C113.727 53.5163 113.362 53.1624 112.814 53.1624H96.2766L96.5507 53.0739ZM72.8874 79.6146C75.4456 79.6146 77.4556 81.5609 77.4556 84.038C77.4556 86.5152 75.4456 88.4615 72.8874 88.4615C70.3292 88.4615 68.3191 86.5152 68.3191 84.038C68.3191 81.5609 70.3292 79.6146 72.8874 79.6146ZM104.865 79.6146C114.915 79.6146 123.138 87.5768 123.138 97.3084C123.138 107.04 114.915 115.002 104.865 115.002C94.8148 115.002 86.592 107.04 86.592 97.3084C86.592 87.5768 94.8148 79.6146 104.865 79.6146ZM104.865 88.4615C99.8398 88.4615 95.7284 92.4426 95.7284 97.3084C95.7284 102.174 99.8398 106.155 104.865 106.155C109.89 106.155 114.001 102.174 114.001 97.3084C114.001 92.4426 109.89 88.4615 104.865 88.4615Z" fill="#212121"/>
</svg>
