<svg width="48" height="48" viewBox="0 0 48 48" fill="none" xmlns="http://www.w3.org/2000/svg">
<path d="M24 48C37.2548 48 48 37.2548 48 24C48 10.7452 37.2548 0 24 0C10.7452 0 0 10.7452 0 24C0 37.2548 10.7452 48 24 48Z" fill="#60C689"/>
<path opacity="0.4" fill-rule="evenodd" clip-rule="evenodd" d="M14.9996 20.8318C14.9996 15.8638 19.0316 11.8318 23.9996 11.8318C28.9676 11.8318 32.9996 15.8638 32.9996 20.8318C32.9756 25.7038 29.1596 29.6398 24.3116 29.8078H24.2636H24.0956H23.8796C18.8156 29.6638 14.9996 25.7038 14.9996 20.8318ZM24.0005 47.9998C30.2885 47.9998 36.0005 45.5758 40.2725 41.6398C39.6965 39.4558 38.1605 37.4638 35.8565 35.9278C29.3525 31.5598 18.6965 31.5598 12.1445 35.9278C9.86452 37.4638 8.30452 39.4558 7.72852 41.6398C12.0005 45.5758 17.7125 47.9998 24.0005 47.9998Z" fill="white"/>
</svg>
