<svg width="345" height="71" viewBox="0 0 345 71" fill="none" xmlns="http://www.w3.org/2000/svg">
<path opacity="0.5" fill-rule="evenodd" clip-rule="evenodd" d="M345 52L0 52V48L345 48V52Z" fill="white"/>
<rect opacity="0.5" y="32" width="4" height="8" fill="white"/>
<rect opacity="0.5" x="10" y="28" width="4" height="12" fill="white"/>
<rect opacity="0.5" x="20" y="24" width="4" height="16" fill="white"/>
<rect opacity="0.5" x="30" y="28" width="4" height="12" fill="white"/>
<rect opacity="0.5" x="40" y="28" width="4" height="12" fill="white"/>
<rect opacity="0.5" x="50" y="18" width="4" height="22" fill="white"/>
<rect opacity="0.5" x="60" y="24" width="4" height="16" fill="white"/>
<rect opacity="0.5" x="70" y="18" width="4" height="22" fill="white"/>
<rect opacity="0.5" x="80" y="12" width="4" height="28" fill="white"/>
<rect opacity="0.5" x="90" y="20" width="4" height="20" fill="white"/>
<rect opacity="0.5" x="100" y="24" width="4" height="16" fill="white"/>
<rect opacity="0.5" x="110" y="24" width="4" height="16" fill="white"/>
<rect opacity="0.5" x="120" y="18" width="4" height="22" fill="white"/>
<rect opacity="0.2" x="130" y="20" width="4" height="20" fill="white"/>
<rect opacity="0.2" x="140" y="16" width="4" height="24" fill="white"/>
<rect opacity="0.2" x="150" y="12" width="4" height="28" fill="white"/>
<rect opacity="0.2" x="160" y="12" width="4" height="28" fill="white"/>
<rect opacity="0.2" x="170" y="4" width="4" height="36" fill="white"/>
<rect opacity="0.2" x="180" y="12" width="4" height="28" fill="white"/>
<rect opacity="0.2" x="190" y="8" width="4" height="32" fill="white"/>
<rect opacity="0.2" x="200" width="4" height="40" fill="white"/>
<rect opacity="0.2" x="210" y="8" width="4" height="32" fill="white"/>
<rect opacity="0.2" x="220" y="4" width="4" height="36" fill="white"/>
<rect opacity="0.2" x="230" y="12" width="4" height="28" fill="white"/>
<rect opacity="0.2" x="240" y="12" width="4" height="28" fill="white"/>
<rect opacity="0.2" x="250" y="20" width="4" height="20" fill="white"/>
<rect opacity="0.2" x="260" y="16" width="4" height="24" fill="white"/>
<rect opacity="0.2" x="270" y="28" width="4" height="12" fill="white"/>
<rect opacity="0.2" x="280" y="16" width="4" height="24" fill="white"/>
<rect opacity="0.2" x="290" y="12" width="4" height="28" fill="white"/>
<rect opacity="0.2" x="300" y="28" width="4" height="12" fill="white"/>
<rect opacity="0.2" x="310" y="24" width="4" height="16" fill="white"/>
<rect opacity="0.2" x="320" y="28" width="4" height="12" fill="white"/>
<rect opacity="0.2" x="330" y="32" width="4" height="8" fill="white"/>
<rect opacity="0.2" x="340" y="36" width="4" height="4" fill="white"/>
<path d="M3.33452 70.1385C2.74976 70.1385 2.24787 69.9905 1.82884 69.6946C1.41217 69.3963 1.09138 68.9666 0.866477 68.4055C0.643939 67.8421 0.53267 67.1638 0.53267 66.3707C0.535038 65.5777 0.647491 64.9029 0.870028 64.3466C1.09493 63.7879 1.41572 63.3617 1.83239 63.0682C2.25142 62.7746 2.75213 62.6278 3.33452 62.6278C3.9169 62.6278 4.41761 62.7746 4.83665 63.0682C5.25568 63.3617 5.57647 63.7879 5.79901 64.3466C6.02391 64.9053 6.13636 65.58 6.13636 66.3707C6.13636 67.1662 6.02391 67.8456 5.79901 68.4091C5.57647 68.9702 5.25568 69.3987 4.83665 69.6946C4.41998 69.9905 3.91927 70.1385 3.33452 70.1385ZM3.33452 69.027C3.78906 69.027 4.14773 68.8033 4.41051 68.3558C4.67566 67.906 4.80824 67.2443 4.80824 66.3707C4.80824 65.7931 4.74787 65.3078 4.62713 64.9148C4.50639 64.5218 4.33594 64.2259 4.11577 64.027C3.8956 63.8258 3.63518 63.7251 3.33452 63.7251C2.88234 63.7251 2.52486 63.95 2.26207 64.3999C1.99929 64.8473 1.86671 65.5043 1.86435 66.3707C1.86198 66.9508 1.91998 67.4384 2.03835 67.8338C2.15909 68.2292 2.32955 68.5275 2.54972 68.7287C2.76989 68.9276 3.03149 69.027 3.33452 69.027ZM8.12234 69.1264C7.9069 69.1264 7.72224 69.0507 7.56836 68.8991C7.41448 68.7453 7.33872 68.5606 7.34109 68.3452C7.33872 68.1321 7.41448 67.9498 7.56836 67.7983C7.72224 67.6468 7.9069 67.571 8.12234 67.571C8.33067 67.571 8.51178 67.6468 8.66566 67.7983C8.82191 67.9498 8.90122 68.1321 8.90359 68.3452C8.90122 68.4896 8.86334 68.621 8.78995 68.7393C8.71893 68.8577 8.62423 68.9524 8.50586 69.0234C8.38986 69.0921 8.26201 69.1264 8.12234 69.1264ZM8.12234 65.522C7.9069 65.522 7.72224 65.4463 7.56836 65.2947C7.41448 65.1409 7.33872 64.9562 7.34109 64.7408C7.33872 64.5277 7.41448 64.3454 7.56836 64.1939C7.72224 64.04 7.9069 63.9631 8.12234 63.9631C8.33067 63.9631 8.51178 64.04 8.66566 64.1939C8.82191 64.3454 8.90122 64.5277 8.90359 64.7408C8.90122 64.8828 8.86334 65.013 8.78995 65.1314C8.71893 65.2498 8.62423 65.3445 8.50586 65.4155C8.38986 65.4865 8.26201 65.522 8.12234 65.522ZM12.9048 70.1385C12.3201 70.1385 11.8182 69.9905 11.3991 69.6946C10.9825 69.3963 10.6617 68.9666 10.4368 68.4055C10.2143 67.8421 10.103 67.1638 10.103 66.3707C10.1054 65.5777 10.2178 64.9029 10.4403 64.3466C10.6652 63.7879 10.986 63.3617 11.4027 63.0682C11.8217 62.7746 12.3224 62.6278 12.9048 62.6278C13.4872 62.6278 13.9879 62.7746 14.407 63.0682C14.826 63.3617 15.1468 63.7879 15.3693 64.3466C15.5942 64.9053 15.7067 65.58 15.7067 66.3707C15.7067 67.1662 15.5942 67.8456 15.3693 68.4091C15.1468 68.9702 14.826 69.3987 14.407 69.6946C13.9903 69.9905 13.4896 70.1385 12.9048 70.1385ZM12.9048 69.027C13.3594 69.027 13.718 68.8033 13.9808 68.3558C14.246 67.906 14.3786 67.2443 14.3786 66.3707C14.3786 65.7931 14.3182 65.3078 14.1974 64.9148C14.0767 64.5218 13.9063 64.2259 13.6861 64.027C13.4659 63.8258 13.2055 63.7251 12.9048 63.7251C12.4527 63.7251 12.0952 63.95 11.8324 64.3999C11.5696 64.8473 11.437 65.5043 11.4347 66.3707C11.4323 66.9508 11.4903 67.4384 11.6087 67.8338C11.7294 68.2292 11.8999 68.5275 12.12 68.7287C12.3402 68.9276 12.6018 69.027 12.9048 69.027ZM19.5748 70.1385C18.99 70.1385 18.4881 69.9905 18.0691 69.6946C17.6524 69.3963 17.3316 68.9666 17.1067 68.4055C16.8842 67.8421 16.7729 67.1638 16.7729 66.3707C16.7753 65.5777 16.8877 64.9029 17.1103 64.3466C17.3352 63.7879 17.656 63.3617 18.0726 63.0682C18.4917 62.7746 18.9924 62.6278 19.5748 62.6278C20.1571 62.6278 20.6578 62.7746 21.0769 63.0682C21.4959 63.3617 21.8167 63.7879 22.0392 64.3466C22.2641 64.9053 22.3766 65.58 22.3766 66.3707C22.3766 67.1662 22.2641 67.8456 22.0392 68.4091C21.8167 68.9702 21.4959 69.3987 21.0769 69.6946C20.6602 69.9905 20.1595 70.1385 19.5748 70.1385ZM19.5748 69.027C20.0293 69.027 20.388 68.8033 20.6507 68.3558C20.9159 67.906 21.0485 67.2443 21.0485 66.3707C21.0485 65.7931 20.9881 65.3078 20.8674 64.9148C20.7466 64.5218 20.5762 64.2259 20.356 64.027C20.1358 63.8258 19.8754 63.7251 19.5748 63.7251C19.1226 63.7251 18.7651 63.95 18.5023 64.3999C18.2395 64.8473 18.1069 65.5043 18.1046 66.3707C18.1022 66.9508 18.1602 67.4384 18.2786 67.8338C18.3993 68.2292 18.5698 68.5275 18.79 68.7287C19.0101 68.9276 19.2717 69.027 19.5748 69.027Z" fill="white"/>
<path d="M321.408 65.8345V66.8928H318.134V65.8345H321.408ZM322.615 68.6506V67.603L325.7 62.7273H326.574V64.2188H326.041L323.964 67.5107V67.5675H328.271V68.6506H322.615ZM326.084 70V68.331L326.098 67.8622V62.7273H327.341V70H326.084ZM330.212 69.1264C329.997 69.1264 329.812 69.0507 329.658 68.8991C329.504 68.7453 329.429 68.5606 329.431 68.3452C329.429 68.1321 329.504 67.9498 329.658 67.7983C329.812 67.6468 329.997 67.571 330.212 67.571C330.421 67.571 330.602 67.6468 330.756 67.7983C330.912 67.9498 330.991 68.1321 330.993 68.3452C330.991 68.4896 330.953 68.621 330.88 68.7393C330.809 68.8577 330.714 68.9524 330.596 69.0234C330.48 69.0921 330.352 69.1264 330.212 69.1264ZM330.212 65.522C329.997 65.522 329.812 65.4463 329.658 65.2947C329.504 65.1409 329.429 64.9562 329.431 64.7408C329.429 64.5277 329.504 64.3454 329.658 64.1939C329.812 64.04 329.997 63.9631 330.212 63.9631C330.421 63.9631 330.602 64.04 330.756 64.1939C330.912 64.3454 330.991 64.5277 330.993 64.7408C330.991 64.8828 330.953 65.013 330.88 65.1314C330.809 65.2498 330.714 65.3445 330.596 65.4155C330.48 65.4865 330.352 65.522 330.212 65.522ZM334.995 70.1385C334.41 70.1385 333.908 69.9905 333.489 69.6946C333.072 69.3963 332.752 68.9666 332.527 68.4055C332.304 67.8421 332.193 67.1638 332.193 66.3707C332.195 65.5777 332.308 64.9029 332.53 64.3466C332.755 63.7879 333.076 63.3617 333.493 63.0682C333.912 62.7746 334.412 62.6278 334.995 62.6278C335.577 62.6278 336.078 62.7746 336.497 63.0682C336.916 63.3617 337.237 63.7879 337.459 64.3466C337.684 64.9053 337.797 65.58 337.797 66.3707C337.797 67.1662 337.684 67.8456 337.459 68.4091C337.237 68.9702 336.916 69.3987 336.497 69.6946C336.08 69.9905 335.579 70.1385 334.995 70.1385ZM334.995 69.027C335.449 69.027 335.808 68.8033 336.071 68.3558C336.336 67.906 336.468 67.2443 336.468 66.3707C336.468 65.7931 336.408 65.3078 336.287 64.9148C336.167 64.5218 335.996 64.2259 335.776 64.027C335.556 63.8258 335.295 63.7251 334.995 63.7251C334.542 63.7251 334.185 63.95 333.922 64.3999C333.659 64.8473 333.527 65.5043 333.525 66.3707C333.522 66.9508 333.58 67.4384 333.699 67.8338C333.819 68.2292 333.99 68.5275 334.21 68.7287C334.43 68.9276 334.692 69.027 334.995 69.027ZM341.665 70.1385C341.08 70.1385 340.578 69.9905 340.159 69.6946C339.742 69.3963 339.421 68.9666 339.197 68.4055C338.974 67.8421 338.863 67.1638 338.863 66.3707C338.865 65.5777 338.978 64.9029 339.2 64.3466C339.425 63.7879 339.746 63.3617 340.162 63.0682C340.581 62.7746 341.082 62.6278 341.665 62.6278C342.247 62.6278 342.748 62.7746 343.167 63.0682C343.586 63.3617 343.907 63.7879 344.129 64.3466C344.354 64.9053 344.466 65.58 344.466 66.3707C344.466 67.1662 344.354 67.8456 344.129 68.4091C343.907 68.9702 343.586 69.3987 343.167 69.6946C342.75 69.9905 342.249 70.1385 341.665 70.1385ZM341.665 69.027C342.119 69.027 342.478 68.8033 342.741 68.3558C343.006 67.906 343.138 67.2443 343.138 66.3707C343.138 65.7931 343.078 65.3078 342.957 64.9148C342.836 64.5218 342.666 64.2259 342.446 64.027C342.226 63.8258 341.965 63.7251 341.665 63.7251C341.212 63.7251 340.855 63.95 340.592 64.3999C340.329 64.8473 340.197 65.5043 340.194 66.3707C340.192 66.9508 340.25 67.4384 340.368 67.8338C340.489 68.2292 340.66 68.5275 340.88 68.7287C341.1 68.9276 341.362 69.027 341.665 69.027Z" fill="white"/>
</svg>
